<svg xmlns="http://www.w3.org/2000/svg" width="12" height="20" viewBox="0 0 12 20" fill="rgba(62, 62, 240, 1)">
<path d="M1.13045 9.38045L9.88045 0.630449C9.96175 0.549152 10.0583 0.484667 10.1645 0.44067C10.2707 0.396671 10.3845 0.374025 10.4995 0.374025C10.6145 0.374025 10.7283 0.396671 10.8345 0.44067C10.9408 0.484667 11.0373 0.549152 11.1186 0.630449C11.1999 0.711746 11.2644 0.80826 11.3084 0.914478C11.3524 1.0207 11.375 1.13454 11.375 1.24951C11.375 1.36448 11.3524 1.47833 11.3084 1.58455C11.2644 1.69077 11.1999 1.78728 11.1186 1.86858L2.98655 9.99951L11.1186 18.1305C11.2828 18.2946 11.375 18.5173 11.375 18.7495C11.375 18.9817 11.2828 19.2044 11.1186 19.3686C10.9544 19.5328 10.7317 19.625 10.4995 19.625C10.2673 19.625 10.0446 19.5328 9.88045 19.3686L1.13045 10.6186C1.0491 10.5373 0.984558 10.4408 0.940524 10.3346C0.89649 10.2284 0.873827 10.1145 0.873827 9.99951C0.873827 9.88452 0.89649 9.77066 0.940524 9.66444C0.984558 9.55822 1.0491 9.46171 1.13045 9.38045Z"/>
</svg>