<svg xmlns="http://www.w3.org/2000/svg" width="12" height="20" viewBox="0 0 12 20" fill="rgba(62, 62, 240, 1)">
<path d="M10.8695 10.6195L2.11955 19.3696C2.03825 19.4508 1.94174 19.5153 1.83552 19.5593C1.7293 19.6033 1.61546 19.626 1.50049 19.626C1.38552 19.626 1.27167 19.6033 1.16545 19.5593C1.05923 19.5153 0.96272 19.4508 0.881424 19.3696C0.800127 19.2883 0.735639 19.1917 0.691642 19.0855C0.647645 18.9793 0.625 18.8655 0.625 18.7505C0.625 18.6355 0.647645 18.5217 0.691642 18.4155C0.735639 18.3092 0.800127 18.2127 0.881424 18.1314L9.01346 10.0005L0.881424 1.86955C0.717238 1.70536 0.625 1.48268 0.625 1.25049C0.625 1.01829 0.717238 0.79561 0.881424 0.631424C1.04561 0.467238 1.26829 0.375 1.50049 0.375C1.73268 0.375 1.95536 0.467238 2.11955 0.631424L10.8695 9.38142C10.9509 9.46269 11.0154 9.55919 11.0595 9.66541C11.1035 9.77164 11.1262 9.8855 11.1262 10.0005C11.1262 10.1155 11.1035 10.2293 11.0595 10.3356C11.0154 10.4418 10.9509 10.5383 10.8695 10.6195Z"/>
</svg>