<svg width="512" height="512" viewBox="0 0 512 512" fill="none" xmlns="http://www.w3.org/2000/svg">
<path d="M344.985 322.435V285.198H359.508C364.331 285.198 368.125 286.341 370.892 288.629C373.658 290.916 375.041 294.099 375.041 298.177C375.041 300.873 374.42 303.186 373.179 305.119C371.938 307.052 370.165 308.533 367.86 309.561C367.531 309.708 367.193 309.844 366.846 309.97L375.68 322.435H369.881L361.873 311.007C361.115 311.071 360.327 311.104 359.508 311.104H350.31L350.305 322.435H344.986L344.985 322.435ZM388.3 322.435V285.198H393.62V322.435H388.3ZM419.38 322.435L402.995 285.198H408.74L422.154 315.816L435.658 285.198H440.977L424.646 322.435H419.379H419.38ZM450.406 322.435L450.353 285.198H476.632V289.825L455.619 289.772L455.641 301.264L474.291 301.316L474.344 305.784L455.649 305.732L455.672 317.807L477.376 317.86V322.435H450.406V322.435ZM296.404 322.435V285.198H312.097C316.068 285.198 319.571 285.978 322.603 287.538C325.635 289.098 327.993 291.279 329.678 294.081C331.363 296.883 332.205 300.128 332.205 303.816C332.205 307.505 331.363 310.75 329.678 313.551C327.993 316.353 325.635 318.534 322.603 320.094C319.571 321.655 316.069 322.435 312.097 322.435H296.404V322.435ZM301.723 317.806H311.777C314.863 317.806 317.531 317.222 319.784 316.051C322.035 314.881 323.782 313.241 325.023 311.13C326.265 309.02 326.885 306.582 326.885 303.816C326.885 301.014 326.265 298.567 325.023 296.475C323.782 294.382 322.035 292.751 319.784 291.581C317.531 290.411 314.863 289.825 311.777 289.825H301.723V317.806ZM350.308 306.582H359.348C362.753 306.582 365.332 305.846 367.088 304.375C368.844 302.903 369.721 300.837 369.721 298.177C369.721 295.517 368.844 293.46 367.088 292.006C365.332 290.552 362.753 289.825 359.348 289.825H350.305L350.308 306.582Z" fill="#517ABC"/>
<path d="M203.768 322.86C200.967 322.86 198.351 322.382 195.922 321.424C193.493 320.467 191.391 319.128 189.618 317.408C187.845 315.688 186.471 313.675 185.496 311.37C184.52 309.065 184.015 306.547 183.98 303.816C184.015 301.086 184.52 298.568 185.496 296.262C186.471 293.957 187.854 291.945 189.645 290.225C191.436 288.505 193.528 287.166 195.922 286.208C198.316 285.251 200.931 284.772 203.768 284.772C206.641 284.772 209.274 285.251 211.668 286.208C214.062 287.166 216.154 288.496 217.945 290.198C219.736 291.9 221.119 293.913 222.094 296.236C223.07 298.559 223.557 301.086 223.557 303.816C223.557 306.582 223.07 309.118 222.094 311.423C221.119 313.728 219.736 315.732 217.945 317.435C216.154 319.137 214.062 320.467 211.668 321.424C209.274 322.382 206.641 322.86 203.768 322.86ZM34.7119 322.435V285.198H40.0313V322.435H34.7119ZM65.7912 322.435L49.4069 285.198H55.152L68.5636 315.812L82.0693 285.198H87.3887L71.0575 322.435H65.7908H65.7912ZM89.9555 322.435L106.819 285.198H112.085L129.001 322.435H123.416L119.325 313.125H99.5255L95.4344 322.435H89.9551H89.9555ZM117.455 308.87L109.426 290.598L101.396 308.87H117.455H117.455ZM139.175 322.435V285.198H143.537L165.901 312.972L165.879 285.198H171.199V322.435H166.837L144.503 294.698L144.494 322.435H139.175H139.175ZM245.913 322.435L229.528 285.198H235.273L248.687 315.816L262.191 285.198H267.51L251.179 322.435H245.912H245.913ZM203.768 318.126C205.861 318.126 207.785 317.771 209.54 317.062C211.296 316.353 212.821 315.351 214.115 314.056C215.41 312.762 216.42 311.246 217.147 309.508C217.874 307.77 218.238 305.873 218.238 303.816C218.238 301.76 217.883 299.862 217.174 298.124C216.465 296.386 215.454 294.871 214.142 293.576C212.83 292.281 211.296 291.28 209.541 290.571C207.785 289.861 205.861 289.506 203.769 289.506C201.712 289.506 199.797 289.861 198.024 290.571C196.25 291.28 194.717 292.281 193.422 293.576C192.128 294.871 191.117 296.378 190.39 298.098C189.663 299.818 189.3 301.724 189.3 303.817C189.3 305.873 189.663 307.771 190.39 309.509C191.117 311.246 192.137 312.762 193.449 314.057C194.761 315.351 196.295 316.353 198.05 317.062C199.806 317.772 201.712 318.126 203.769 318.126L203.768 318.126Z" fill="#517ABC"/>
<path fill-rule="evenodd" clip-rule="evenodd" d="M311.766 230.515C312.501 230.624 318.458 231.851 320.874 243.185C323.45 255.275 323.371 259.397 323.649 258.882C323.926 258.366 323.054 242.63 320.794 236.486C319.882 234.005 319.421 232.428 318.824 231.39L311.766 230.515V230.515ZM256.116 216.832C256.116 216.832 293.704 222.058 307.172 225.677C320.639 229.295 350.79 232.813 369.182 232.913C387.574 233.013 404.257 241.657 410.388 249.898C416.519 258.139 419.116 265.598 418.267 265.032C417.418 264.466 412.418 248.901 401.381 249.184C390.344 249.467 388.41 264.938 387.797 264.891C387.183 264.844 386.474 255.461 379.493 246.999C372.512 238.537 364.403 237.621 358.974 236.986C354.397 236.451 338.964 233.951 318.824 231.39C316.53 231.098 314.174 230.806 311.766 230.515L311.734 230.51L311.71 230.507C310.199 230.325 308.667 230.143 307.116 229.963C281.396 226.974 254.733 216.671 256.116 216.832ZM101.716 255.987C101.716 255.987 100.144 245.505 103.289 243.566C106.433 241.626 106.59 242.255 115.238 242.255C123.886 242.255 176.868 243.668 208.338 243.39C239.808 243.113 252.563 241.172 253.533 246.164C254.503 251.154 253.047 258.571 253.047 258.571C253.047 258.571 252.978 248.867 247.779 247.689C242.581 246.51 189.83 247.55 176.382 247.203C162.935 246.857 110.659 245.36 106.761 246.222C102.863 247.083 101.716 255.987 101.716 255.987ZM105.993 237.418C105.993 237.418 107.968 224.267 116.025 223.903C124.082 223.539 144.902 222.959 171.819 222.8C198.736 222.641 212.927 222.996 227.322 223.516C241.718 224.037 244.077 228.275 245.997 230.994C247.916 233.713 250.835 239.752 246.836 240.111C242.838 240.471 211.887 240.551 208.368 240.111C204.849 239.671 203.21 237.153 200.93 233.114C198.651 229.075 194.653 227.755 194.653 227.755C194.653 227.755 195.772 229.715 196.572 230.994C197.372 232.274 198.012 233.114 198.012 233.114L137.935 233.633L141.391 227.141C141.391 227.141 137.938 229.284 136.033 232.096C134.127 234.908 132.676 239.444 128.2 239.535C123.725 239.625 106.247 239.284 106.025 239.063C105.803 238.841 105.993 237.417 105.993 237.417V237.418ZM110.965 229.104C110.965 229.104 108.627 230.136 108.732 233.78C108.837 237.423 111.934 238.287 113.198 238.434C114.461 238.582 116.02 237.823 116.02 237.823C116.02 237.823 112.082 236.834 110.986 234.748C109.891 232.663 110.965 229.104 110.965 229.104V229.104ZM122.029 228.944C122.029 228.944 119.606 231.684 120.781 235.151C121.955 238.617 126 238.189 126 238.189C126 238.189 121.638 235.561 122.029 228.944ZM206.424 228.315C206.424 228.315 203.778 231.289 205.815 234.988C207.852 238.688 213.167 237.798 213.167 237.798C213.167 237.798 206.356 235.783 206.424 228.315V228.315ZM226.807 228.681C226.807 228.681 222.886 230.957 224.497 235.263C226.107 239.569 232.024 238.484 232.024 238.484C232.024 238.484 223.371 234.602 226.807 228.681ZM110.635 222.319C110.635 222.319 113.143 220.294 119.92 220.207C126.696 220.119 130.877 220.207 130.877 220.207C130.877 220.207 131.977 220.514 132.285 219.459C132.593 218.402 133.077 216.775 139.898 216.423C146.719 216.07 149.579 215.586 151.251 215.498C152.923 215.41 150.591 214.706 148.479 214.266C146.366 213.826 143.066 213.298 141.746 211.978C140.426 210.658 135.981 205.817 140.029 205.509C144.078 205.201 171.61 204.461 185.151 204.153C198.691 203.846 207.289 203.919 209.987 203.817C212.686 203.716 213.259 204.492 214.001 205.909C214.743 207.325 216.159 213.902 215.586 213.969C215.012 214.036 196.295 215.892 197.408 216.06C198.521 216.229 224.686 216.385 230.126 216.594C235.566 216.802 237.052 216.802 240.47 218.912C243.889 221.022 247.456 224.054 247.367 223.46C247.278 222.866 244.127 217.752 239.906 215.791C235.685 213.829 232.207 213.858 232.207 213.858C232.207 213.858 231.969 211.718 232.326 211.659C232.683 211.599 243.562 211.897 245.227 211.421C246.892 210.945 246.862 210.38 245.733 209.607C244.603 208.835 240.383 206.743 231.918 203.463C223.453 200.184 222.235 199.746 220.752 199.725C219.228 199.704 214.508 199.442 214.226 199.879C213.944 200.315 213.945 200.567 213.945 200.567C213.945 200.567 164.373 200.948 154.151 201.037C143.929 201.126 129.514 201.357 127.099 201.357C124.683 201.357 121.971 201.399 121.674 203.772C121.378 206.145 120.996 210.171 123.2 211.357C125.403 212.544 126.209 211.95 126.42 211.06C126.632 210.17 128.242 206.399 128.369 206.696C128.496 206.992 129.81 215.51 129.217 215.637C128.624 215.764 121.632 215.637 119.895 215.637C118.157 215.637 115.36 216.315 113.157 218.01C110.954 219.705 110.233 221.824 110.635 222.319V222.319ZM306.278 243.807C306.278 243.807 298.372 238.839 292.914 246.396C287.456 253.953 289.555 264.868 288.436 264.658C287.316 264.448 281.369 259.9 283.958 250.735C286.547 241.568 297.943 238.17 302.84 240.481C307.737 242.793 306.797 243.987 306.278 243.808L306.278 243.807ZM278.698 216.391C278.698 216.391 285.688 217.384 294.947 219.318C304.207 221.251 315.478 224.737 316.013 224.436C316.548 224.134 308.665 212.675 306.195 208.879C303.724 205.084 296.66 195.499 296.955 195.104C297.251 194.709 307.809 195.146 318.396 200.201C328.983 205.255 335.601 211.686 341.89 218.231C348.178 224.776 348.888 226.778 345.403 227.071C341.917 227.365 331.018 227.476 332.119 227.769C333.219 228.063 342.1 229.016 350.832 229.823C359.564 230.63 363.199 230.82 362.356 230.417C361.512 230.013 359.638 228.466 361.069 228.356C362.5 228.246 363.417 227.512 363.931 225.677C364.444 223.843 365.545 220.504 363.967 219.293C362.39 218.083 361.142 217.826 355.933 217.716C350.723 217.606 351.383 219.257 351.75 220.211C352.117 221.165 352.74 222.706 352.337 222.302C351.934 221.899 330.786 200.007 316.712 194.623C302.637 189.239 284.867 189.221 270.208 189.128C255.549 189.035 229.677 188.492 212.548 190.419C195.42 192.345 181.717 196.77 183.216 196.77C184.715 196.77 198.595 193.655 224.909 193.159C251.223 192.663 258.743 192.787 267.696 193.148C276.648 193.509 279.06 193.985 272.292 197.191C265.524 200.397 246.208 213.023 247.792 212.706C249.375 212.389 273.955 200.317 280.644 198.259C287.333 196.201 290.112 196.402 290.384 200.137C290.656 203.872 290.812 211.421 285.948 213.133C281.085 214.845 277.155 215.701 278.699 216.391L278.698 216.391Z" fill="#517ABC"/>
</svg>
