<svg width="56" height="36" viewBox="0 0 56 36" fill="none" xmlns="http://www.w3.org/2000/svg">
<g clip-path="url(#clip0_31_10817)">
<rect width="56" height="36" rx="6" fill="#C22B2B"/>
<path d="M0 0H56V36H0V0Z" fill="#DE2910"/>
<path d="M6.72016 15.4391L10.5001 4.17273L14.2801 15.4391L4.2002 8.55409H16.8L6.72016 15.4391Z" fill="#FFDE00"/>
<path d="M23.1149 4.38865L19.2248 5.24512L21.8196 2.24104L21.5651 6.28413L19.4064 2.70478L23.1149 4.38865Z" fill="#FFDE00"/>
<path d="M27.0409 9.33187L23.121 8.62237L26.6854 6.85327L24.8725 10.4818L24.28 6.35084L27.0409 9.33187Z" fill="#FFDE00"/>
<path d="M26.4687 16.2671L23.1809 14.0309L27.1616 13.86L24.0168 16.4384L25.1717 12.4266L26.4687 16.2671Z" fill="#FFDE00"/>
<path d="M21.5241 20.7976L19.3608 17.4733L23.099 18.8432L19.1959 20.0148L21.8207 16.7574L21.5241 20.7976Z" fill="#FFDE00"/>
</g>
<defs>
<clipPath id="clip0_31_10817">
<rect width="56" height="36" rx="6" fill="white"/>
</clipPath>
</defs>
</svg>
