<svg width="44" height="28" viewBox="0 0 44 28" fill="none" xmlns="http://www.w3.org/2000/svg">
<rect width="44" height="28" rx="14" fill="#ED3535"/>
<g clip-path="url(#clip0_874_2526)">
<path d="M27.3688 15.231C27.2039 13.0834 26.204 11.7376 25.3219 10.55C24.5051 9.45051 23.7996 8.50107 23.7996 7.1005C23.7996 6.988 23.7366 6.88518 23.6367 6.83362C23.5365 6.78176 23.4161 6.79025 23.325 6.85646C22.0002 7.80444 20.8948 9.4022 20.5087 10.9267C20.2406 11.988 20.2052 13.1812 20.2002 13.9692C18.9768 13.7079 18.6996 11.8779 18.6967 11.858C18.6829 11.763 18.6249 11.6804 18.5405 11.6353C18.4553 11.5908 18.3551 11.5876 18.2687 11.6303C18.2045 11.6614 16.6939 12.4289 16.606 15.4935C16.5999 15.5954 16.5996 15.6977 16.5996 15.7999C16.5996 18.7771 19.0222 21.1995 21.9996 21.1995C22.0037 21.1998 22.0081 21.2004 22.0116 21.1995C22.0128 21.1995 22.014 21.1995 22.0154 21.1995C24.9856 21.191 27.3996 18.7719 27.3996 15.7999C27.3996 15.6502 27.3688 15.231 27.3688 15.231ZM21.9996 20.5996C21.007 20.5996 20.1996 19.7395 20.1996 18.6822C20.1996 18.6462 20.1993 18.6099 20.2019 18.5653C20.214 18.1195 20.2986 17.8151 20.3915 17.6127C20.5655 17.9865 20.8767 18.3301 21.382 18.3301C21.5479 18.3301 21.6821 18.1959 21.6821 18.0301C21.6821 17.603 21.6909 17.1103 21.7972 16.6656C21.8918 16.2712 22.118 15.8517 22.4045 15.5154C22.532 15.9519 22.7804 16.3052 23.023 16.65C23.3702 17.1433 23.729 17.6534 23.792 18.5232C23.7958 18.5747 23.7997 18.6266 23.7997 18.6822C23.7996 19.7395 22.9922 20.5996 21.9996 20.5996Z" fill="#F7F7FA"/>
</g>
<defs>
<clipPath id="clip0_874_2526">
<rect width="14.4" height="14.4" fill="white" transform="translate(14.7998 6.79999)"/>
</clipPath>
</defs>
</svg>
