<svg width="56" height="36" viewBox="0 0 56 36" fill="none" xmlns="http://www.w3.org/2000/svg">
<rect width="56" height="36" rx="6" fill="#F7F7FA"/>
<mask id="mask0_31_10941" style="mask-type:luminance" maskUnits="userSpaceOnUse" x="6" y="2" width="43" height="32">
<path d="M6.31323 2.18213H48.7728V33.8185H6.31323V2.18213Z" fill="white"/>
</mask>
<g mask="url(#mask0_31_10941)">
<path fill-rule="evenodd" clip-rule="evenodd" d="M27.9379 18.025C27.9379 19.8686 27.2007 21.6367 25.8886 22.9403C24.5764 24.2439 22.7968 24.9763 20.9411 24.9763C19.0855 24.9763 17.3058 24.2439 15.9936 22.9403C14.6815 21.6367 13.9443 19.8686 13.9443 18.025C13.9443 16.1813 14.6815 14.4132 15.9936 13.1096C17.3058 11.806 19.0855 11.0736 20.9411 11.0736C22.7968 11.0736 24.5764 11.806 25.8886 13.1096C27.2007 14.4132 27.9379 16.1813 27.9379 18.025Z" fill="#F7F7FA"/>
<path fill-rule="evenodd" clip-rule="evenodd" d="M36.7132 18.4325C36.7132 23.4375 32.6707 27.5032 27.6765 27.5032C22.6824 27.5032 18.646 23.4375 18.646 18.4325C18.646 13.4275 22.6886 9.35559 27.6827 9.35559C32.6769 9.35559 36.7132 13.4275 36.7132 18.4325Z" fill="#C70000"/>
<path fill-rule="evenodd" clip-rule="evenodd" d="M9.19873 10.0172L14.3981 4.04211L15.6358 5.09872L10.4302 11.08L9.19873 10.0172ZM10.9028 11.4816L16.1022 5.50653L17.3399 6.55696L12.1343 12.5444L10.9028 11.4816Z" fill="#252533"/>
<path fill-rule="evenodd" clip-rule="evenodd" d="M9.19873 10.0172L14.3981 4.04211L15.6358 5.09872L10.4302 11.08L9.19873 10.0172Z" fill="#252533"/>
<path fill-rule="evenodd" clip-rule="evenodd" d="M9.19873 10.0172L14.3981 4.04211L15.6358 5.09872L10.4302 11.08L9.19873 10.0172ZM12.6443 12.9831L17.8436 6.99567L19.0813 8.05845L13.8757 14.0397L12.6443 12.9831Z" fill="#252533"/>
<path fill-rule="evenodd" clip-rule="evenodd" d="M9.19873 10.0172L14.3981 4.04211L15.6358 5.09872L10.4302 11.08L9.19873 10.0172Z" fill="#252533"/>
<path fill-rule="evenodd" clip-rule="evenodd" d="M9.19873 10.017L14.3981 4.04195L15.6358 5.09855L10.4302 11.0798L9.19873 10.017ZM40.8428 4.03577L46.0049 10.0541L44.7611 11.1045L39.599 5.08619L40.8428 4.03577ZM37.3787 6.97078L42.5407 12.9891L41.2969 14.0395L36.1348 8.02121L37.3787 6.97078Z" fill="#252533"/>
<path fill-rule="evenodd" clip-rule="evenodd" d="M38.2436 10.4375L43.1196 6.24817L44.0339 7.2986L38.8096 11.9575L38.2312 10.4375H38.2436Z" fill="#F7F7FA"/>
<path fill-rule="evenodd" clip-rule="evenodd" d="M44.251 25.1923L39.2506 31.1118L38.0254 30.0984L43.0257 24.179L44.251 25.1923ZM39.1262 5.48755L44.2883 11.5059L43.0506 12.5563L37.8948 6.5318L39.1262 5.48755ZM45.9488 26.5949L40.9423 32.5144L39.7108 31.501L44.7174 25.5816L45.9488 26.5949ZM42.522 23.765L37.5216 29.6844L36.2964 28.6711L41.2968 22.7516L42.522 23.765Z" fill="#252533"/>
<path fill-rule="evenodd" clip-rule="evenodd" d="M18.7767 16.8328C19.0628 19.119 19.4795 21.6647 23.0183 21.9242C24.343 22.0046 26.924 21.6153 27.8072 18.0191C28.9764 14.5713 32.4717 13.5826 34.8537 15.4487C36.2158 16.3261 36.5889 17.7164 36.676 18.7668C36.5703 22.1034 34.6298 25.0076 32.1483 26.3051C29.2874 27.992 25.3319 28.0291 21.8677 25.471C20.3066 24.0189 18.1236 21.3311 18.7767 16.8328Z" fill="#3D5897"/>
<path fill-rule="evenodd" clip-rule="evenodd" d="M39.3881 25.1063L44.2765 29.2833L43.3685 30.3337L37.9514 25.8972L39.3819 25.1063H39.3881Z" fill="#F7F7FA"/>
<path fill-rule="evenodd" clip-rule="evenodd" d="M12.1531 24.2778L17.3151 30.29L16.0713 31.3404L10.9092 25.3283L12.1531 24.2778Z" fill="#252533"/>
<path fill-rule="evenodd" clip-rule="evenodd" d="M11.2637 29.2275L16.1521 25.032L17.0663 26.0824L11.8421 30.7475L11.2637 29.2213V29.2275Z" fill="#F7F7FA"/>
<path fill-rule="evenodd" clip-rule="evenodd" d="M13.8697 22.826L19.0318 28.8382L17.7879 29.8886L12.6258 23.8765L13.8697 22.826ZM10.4055 25.7611L15.5676 31.7732L14.3237 32.8236L9.16162 26.8115L10.4055 25.7611Z" fill="#252533"/>
</g>
</svg>
