<svg width="102" height="19" viewBox="0 0 102 19" fill="none" xmlns="http://www.w3.org/2000/svg">
<path d="M10.2974 3.13251L11.6174 5.77251C11.7974 6.14001 12.2774 6.49251 12.6824 6.56001L15.0749 6.95751C16.6049 7.21251 16.9649 8.32251 15.8624 9.41751L14.0024 11.2775C13.6874 11.5925 13.5149 12.2 13.6124 12.635L14.1449 14.9375C14.5649 16.76 13.5974 17.465 11.9849 16.5125L9.74243 15.185C9.33743 14.945 8.66993 14.945 8.25743 15.185L6.01493 16.5125C4.40993 17.465 3.43493 16.7525 3.85493 14.9375L4.38743 12.635C4.48493 12.2 4.31243 11.5925 3.99743 11.2775L2.13743 9.41751C1.04243 8.32251 1.39493 7.21251 2.92493 6.95751L5.31743 6.56001C5.71493 6.49251 6.19493 6.14001 6.37493 5.77251L7.69493 3.13251C8.41493 1.70001 9.58493 1.70001 10.2974 3.13251Z" fill="#E8B425"/>
<path d="M31.2974 3.13251L32.6174 5.77251C32.7974 6.14001 33.2774 6.49251 33.6824 6.56001L36.0749 6.95751C37.6049 7.21251 37.9649 8.32251 36.8624 9.41751L35.0024 11.2775C34.6874 11.5925 34.5149 12.2 34.6124 12.635L35.1449 14.9375C35.5649 16.76 34.5974 17.465 32.9849 16.5125L30.7424 15.185C30.3374 14.945 29.6699 14.945 29.2574 15.185L27.0149 16.5125C25.4099 17.465 24.4349 16.7525 24.8549 14.9375L25.3874 12.635C25.4849 12.2 25.3124 11.5925 24.9974 11.2775L23.1374 9.41751C22.0424 8.32251 22.3949 7.21251 23.9249 6.95751L26.3174 6.56001C26.7149 6.49251 27.1949 6.14001 27.3749 5.77251L28.6949 3.13251C29.4149 1.70001 30.5849 1.70001 31.2974 3.13251Z" fill="#E8B425"/>
<path d="M52.2974 3.13251L53.6174 5.77251C53.7974 6.14001 54.2774 6.49251 54.6824 6.56001L57.0749 6.95751C58.6049 7.21251 58.9649 8.32251 57.8624 9.41751L56.0024 11.2775C55.6874 11.5925 55.5149 12.2 55.6124 12.635L56.1449 14.9375C56.5649 16.76 55.5974 17.465 53.9849 16.5125L51.7424 15.185C51.3374 14.945 50.6699 14.945 50.2574 15.185L48.0149 16.5125C46.4099 17.465 45.4349 16.7525 45.8549 14.9375L46.3874 12.635C46.4849 12.2 46.3124 11.5925 45.9974 11.2775L44.1374 9.41751C43.0424 8.32251 43.3949 7.21251 44.9249 6.95751L47.3174 6.56001C47.7149 6.49251 48.1949 6.14001 48.3749 5.77251L49.6949 3.13251C50.4149 1.70001 51.5849 1.70001 52.2974 3.13251Z" fill="#E8B425"/>
<path d="M73.2974 3.13251L74.6174 5.77251C74.7974 6.14001 75.2774 6.49251 75.6824 6.56001L78.0749 6.95751C79.6049 7.21251 79.9649 8.32251 78.8624 9.41751L77.0024 11.2775C76.6874 11.5925 76.5149 12.2 76.6124 12.635L77.1449 14.9375C77.5649 16.76 76.5974 17.465 74.9849 16.5125L72.7424 15.185C72.3374 14.945 71.6699 14.945 71.2574 15.185L69.0149 16.5125C67.4099 17.465 66.4349 16.7525 66.8549 14.9375L67.3874 12.635C67.4849 12.2 67.3124 11.5925 66.9974 11.2775L65.1374 9.41751C64.0424 8.32251 64.3949 7.21251 65.9249 6.95751L68.3174 6.56001C68.7149 6.49251 69.1949 6.14001 69.3749 5.77251L70.6949 3.13251C71.4149 1.70001 72.5849 1.70001 73.2974 3.13251Z" fill="#E8B425"/>
<path d="M94.2974 3.13251L95.6174 5.77251C95.7974 6.14001 96.2774 6.49251 96.6824 6.56001L99.0749 6.95751C100.605 7.21251 100.965 8.32251 99.8624 9.41751L98.0024 11.2775C97.6874 11.5925 97.5149 12.2 97.6124 12.635L98.1449 14.9375C98.5649 16.76 97.5974 17.465 95.9849 16.5125L93.7424 15.185C93.3374 14.945 92.6699 14.945 92.2574 15.185L90.0149 16.5125C88.4099 17.465 87.4349 16.7525 87.8549 14.9375L88.3874 12.635C88.4849 12.2 88.3124 11.5925 87.9974 11.2775L86.1374 9.41751C85.0424 8.32251 85.3949 7.21251 86.9249 6.95751L89.3174 6.56001C89.7149 6.49251 90.1949 6.14001 90.3749 5.77251L91.6949 3.13251C92.4149 1.70001 93.5849 1.70001 94.2974 3.13251Z" fill="#E8B425"/>
</svg>
