<svg width="28" height="28" viewBox="0 0 28 28" fill="none" xmlns="http://www.w3.org/2000/svg">
<path fill-rule="evenodd" clip-rule="evenodd" d="M1.6402 1.6402C0 3.2804 0 5.92027 0 11.2V16.8C0 22.0797 0 24.7196 1.6402 26.3598C3.2804 28 5.92027 28 11.2 28H16.8C22.0797 28 24.7196 28 26.3598 26.3598C28 24.7196 28 22.0797 28 16.8V11.2C28 5.92027 28 3.2804 26.3598 1.6402C24.7196 0 22.0797 0 16.8 0H11.2C5.92027 0 3.2804 0 1.6402 1.6402ZM14.5007 10.3348C13.139 10.9011 10.4175 12.0734 6.33621 13.8516C5.67347 14.1151 5.3263 14.3729 5.2947 14.625C5.24129 15.0511 5.77483 15.2189 6.50139 15.4473C6.60022 15.4784 6.70262 15.5106 6.8076 15.5447C7.52241 15.7771 8.48397 16.0489 8.98384 16.0597C9.43727 16.0695 9.94335 15.8826 10.5021 15.4989C14.3154 12.9249 16.2838 11.6238 16.4074 11.5957C16.4945 11.576 16.6154 11.5511 16.6972 11.6238C16.7791 11.6966 16.771 11.8344 16.7624 11.8714C16.7095 12.0967 14.6151 14.0438 13.5313 15.0514C13.1934 15.3656 12.9538 15.5884 12.9048 15.6393C12.795 15.7533 12.6831 15.8611 12.5756 15.9647C11.9116 16.6049 11.4136 17.085 12.6032 17.8689C13.1749 18.2457 13.6324 18.5572 14.0888 18.868C14.5872 19.2075 15.0843 19.546 15.7276 19.9676C15.8914 20.0751 16.0479 20.1866 16.2004 20.2953C16.7804 20.7088 17.3015 21.0803 17.9454 21.0211C18.3195 20.9867 18.7059 20.6349 18.9021 19.5858C19.3659 17.1064 20.2776 11.7342 20.4883 9.52048C20.5067 9.32653 20.4835 9.07831 20.4648 8.96935C20.4462 8.86039 20.4072 8.70514 20.2656 8.59021C20.0979 8.4541 19.8389 8.4254 19.7231 8.42744C19.1965 8.43672 18.3886 8.71763 14.5007 10.3348Z" fill="#2AABEE"/>
</svg>
