<svg width="28" height="28" viewBox="0 0 28 28" fill="none" xmlns="http://www.w3.org/2000/svg">
<path d="M16.7998 0C22.0795 0 24.7192 0.000422935 26.3594 1.64062C27.9996 3.28083 28 5.92047 28 11.2002V16.7998C28 22.0795 27.9996 24.7192 26.3594 26.3594C24.7192 27.9996 22.0795 28 16.7998 28H11.2002C5.92047 28 3.28083 27.9996 1.64062 26.3594C0.000422935 24.7192 0 22.0795 0 16.7998V11.2002C0 5.92046 0.000422935 3.28083 1.64062 1.64062C3.28083 0.000422935 5.92046 0 11.2002 0H16.7998ZM14.2344 4.66699C9.4023 4.66699 5.48455 8.58495 5.48438 13.417C5.48438 15.0585 5.94497 16.5896 6.73145 17.9023L5.5625 22.167L9.91895 21.0234C11.193 21.7478 12.6641 22.167 14.2344 22.167C19.0665 22.1669 22.9844 18.2491 22.9844 13.417C22.9842 8.58502 19.0664 4.66709 14.2344 4.66699ZM11.6533 9.3418C11.8094 9.34544 11.98 9.35634 12.1426 9.71582C12.3358 10.1432 12.7556 11.2156 12.8096 11.3242C12.8634 11.4327 12.9019 11.5602 12.8271 11.7021C12.7557 11.8479 12.7182 11.9364 12.6133 12.0654C12.5047 12.1908 12.3855 12.3466 12.2871 12.4414C12.1785 12.55 12.067 12.6692 12.1924 12.8857C12.3178 13.1023 12.7527 13.8126 13.3965 14.3857C14.2238 15.1248 14.9221 15.3522 15.1396 15.4609C15.3568 15.5695 15.4831 15.5528 15.6084 15.4072C15.7374 15.2651 16.1499 14.777 16.2959 14.5596C16.438 14.3424 16.5835 14.3798 16.7803 14.4512C16.98 14.5226 18.0447 15.0472 18.2627 15.1562C18.48 15.2649 18.623 15.319 18.6777 15.4072C18.7337 15.4991 18.7334 15.9323 18.5537 16.4375C18.3737 16.9427 17.4896 17.4313 17.0928 17.4658C16.6925 17.503 16.3183 17.6464 14.4902 16.9268C12.2853 16.0583 10.8948 13.7992 10.7861 13.6533C10.6765 13.5098 9.90336 12.4787 9.90332 11.415C9.90332 10.3473 10.4628 9.82391 10.6592 9.60645C10.859 9.38915 11.0934 9.33594 11.2393 9.33594C11.3813 9.33594 11.5273 9.33525 11.6533 9.3418Z" fill="#2CB742"/>
</svg>
